# xmcd
#
# Track frame offsets: 
#        150
#        14127
#        27937
#        49204
#        63416
#        79348
#        94296
#        110311
#        122883
#        136744
#        151059
#        163912
#        180484
#        196351
#
# Disc length: 2817 seconds
#
# Revision: 3
# Processed by: cddbd v1.5.2PL0 Copyright (c) Steve Scherf et al.
# Submitted via: ExactAudioCopy v0.95a5
#
DISCID=bd0aff0e
DTITLE=Various Artist - HOT HITS COUNTRY VOL 55
DYEAR=1900
DGENRE=Country
TTITLE0=Shania Twain - No One Needs To Know
TTITLE1=Ricochet - Daddy's Money
TTITLE2=Wynonna - Heaven Help My Heart
TTITLE3=Wade Hayes - On A Good Night
TTITLE4=Patty Loveless - A Thousand Times A Day
TTITLE5=Diamond Rio - That's What I Get For Lovin You
TTITLE6=Mark Chesnutt - Wrong Place Wrong Time
TTITLE7=Clay Walker - Only On Days That End In Y
TTITLE8=Daryle Singletary - Workin It Out
TTITLE9=Paul Jefferson - Check Please
TTITLE10=David Ball - Circle Of Friends
TTITLE11=Sawyer Brown - Treat Her Right
TTITLE12=Lee Roy Parnell - Givin Water To A Drowning Man
TTITLE13=Tracy Byrd - 4 To 1 In Atlanta
EXTD=
EXTT0=
EXTT1=
EXTT2=
EXTT3=
EXTT4=
EXTT5=
EXTT6=
EXTT7=
EXTT8=
EXTT9=
EXTT10=
EXTT11=
EXTT12=
EXTT13=
PLAYORDER=
